PathFileType	4	(X/Y/Z)	RBDS026static.trc
DataRate	CameraRate	NumFrames	NumMarkers	Units	OrigDataRate	OrigDataStartFrame	OrigNumFrames
150.000000	150.000000	4	48	mm	150.000000	56	150
Frame#	Time	L.Ankle			L.Ankle.Medial			L.ASIS			L.GTR			L.Heel.Bottom			L.Heel.Lateral			L.Heel.Top			L.HF			L.Iliac.Crest			L.Knee			L.Knee.Medial			L.MT1			L.MT2			L.MT5			L.PSIS			L.Shank.Bottom.Lateral			L.Shank.Bottom.Medial			L.Shank.Top.Lateral			L.Shank.Top.Medial			L.Thigh.Bottom.Lateral			L.Thigh.Bottom.Medial			L.Thigh.Top.Lateral			L.Thigh.Top.Medial			L.TT			R.Ankle			R.Ankle.Medial			R.ASIS			R.GTR			R.Heel.Bottom			R.Heel.Lateral			R.Heel.Top			R.HF			R.Iliac.Crest			R.Knee			R.Knee.Medial			R.MT1			R.MT2			R.MT5			R.PSIS			R.Shank.Bottom.Lateral			R.Shank.Bottom.Medial			R.Shank.Top.Lateral			R.Shank.Top.Medial			R.Thigh.Bottom.Lateral			R.Thigh.Bottom.Medial			R.Thigh.Top.Lateral			R.Thigh.Top.Medial			R.TT			
		X1	Y1	Z1	X2	Y2	Z2	X3	Y3	Z3	X4	Y4	Z4	X5	Y5	Z5	X6	Y6	Z6	X7	Y7	Z7	X8	Y8	Z8	X9	Y9	Z9	X10	Y10	Z10	X11	Y11	Z11	X12	Y12	Z12	X13	Y13	Z13	X14	Y14	Z14	X15	Y15	Z15	X16	Y16	Z16	X17	Y17	Z17	X18	Y18	Z18	X19	Y19	Z19	X20	Y20	Z20	X21	Y21	Z21	X22	Y22	Z22	X23	Y23	Z23	X24	Y24	Z24	X25	Y25	Z25	X26	Y26	Z26	X27	Y27	Z27	X28	Y28	Z28	X29	Y29	Z29	X30	Y30	Z30	X31	Y31	Z31	X32	Y32	Z32	X33	Y33	Z33	X34	Y34	Z34	X35	Y35	Z35	X36	Y36	Z36	X37	Y37	Z37	X38	Y38	Z38	X39	Y39	Z39	X40	Y40	Z40	X41	Y41	Z41	X42	Y42	Z42	X43	Y43	Z43	X44	Y44	Z44	X45	Y45	Z45	X46	Y46	Z46	X47	Y47	Z47	X48	Y48	Z48	

57	0.3733333333333334	708.4517211914063	107.1775360107422	1038.180908203125	736.1103515625	119.4417495727539	1122.189819335938	885.49560546875	1063.012817382813	1114.125244140625	816.1863403320313	965.78564453125	1051.164306640625	640.1383056640625	41.65650177001953	1081.00732421875	675.9649658203125	63.15167617797852	1035.848510742188	649.6395263671875	89.13896179199219	1082.291137695313	789.4953002929688	489.0497741699219	1025.761596679688	804.0121459960938	1138.82373046875	1070.972778320313	807.6971435546875	545.4087524414063	1035.420776367188	794.0648193359375	528.6103515625	1157.235229492188	864.9784545898438	57.81672668457031	1122.373291015625	868.9378662109375	68.17431640625	1077.887939453125	828.825439453125	50.18209457397461	1012.253845214844	711.0597534179688	1107.458374023438	1184.235961914063	731.8141479492188	186.8188323974609	1029.1591796875	686.8030395507813	195.7162475585938	1051.6787109375	742.850830078125	264.9383239746094	1011.042297363281	695.6861572265625	277.9175415039063	1032.97021484375	792.5363159179688	666.3334350585938	1028.304565429688	730.8685302734375	665.822021484375	1067.41748046875	786.3074951171875	776.3338623046875	1022.627685546875	730.1738891601563	774.9149169921875	1064.600708007813	844.2210693359375	458.0347290039063	1071.482299804688	710.3218994140625	104.1999740600586	1418.494140625	735.606201171875	122.1843719482422	1332.388061523438	882.19775390625	1067.735107421875	1353.002319335938	809.728759765625	961.7906494140625	1414.840209960938	639.4158935546875	42.26193618774414	1371.151733398438	671.4099731445313	62.61893844604492	1416.5576171875	648.10595703125	88.23703002929688	1370.677124023438	781.245849609375	485.403564453125	1441.630737304688	812.2305908203125	1130.99609375	1394.219604492188	799.376953125	538.15380859375	1432.921508789063	803.2685546875	525.9607543945313	1311.878295898438	863.9011840820313	60.47092819213867	1332.912109375	870.6720581054688	71.12640380859375	1379.31103515625	834.9696044921875	50.49037170410156	1444.114990234375	712.4334716796875	1107.55322265625	1284.810913085938	726.000244140625	179.1551666259766	1429.1533203125	679.0360717773438	186.2491912841797	1400.303466796875	725.6943969726563	258.5547485351563	1447.216186523438	680.0161743164063	264.58740234375	1418.239013671875	803.6764526367188	647.4238891601563	1440.73095703125	738.7056884765625	647.9117431640625	1409.085571289063	803.18603515625	758.0032348632813	1442.116821289063	740.8624267578125	757.847412109375	1412.817260742188	842.1160888671875	458.4310607910156	1392.249389648438	
58	0.38	708.441162109375	107.1683197021484	1038.177612304688	736.1101684570313	119.4349517822266	1122.184692382813	885.505859375	1063.041748046875	1114.264892578125	816.1622924804688	965.7942504882813	1051.164428710938	640.1420288085938	41.65088653564453	1081.003784179688	675.9649658203125	63.15080642700195	1035.842529296875	649.6397094726563	89.13661193847656	1082.286743164063	789.4476928710938	489.0464782714844	1025.774780273438	803.9570922851563	1138.81005859375	1070.97021484375	807.6526489257813	545.4121704101563	1035.418701171875	794.0047607421875	528.6207275390625	1157.253051757813	864.9786987304688	57.82240295410156	1122.366821289063	868.941650390625	68.17619323730469	1077.8876953125	828.8257446289063	50.17605972290039	1012.260986328125	711.0146484375	1107.45361328125	1184.239868164063	731.8033447265625	186.8233337402344	1029.16015625	686.7973022460938	195.7116394042969	1051.6865234375	742.8366088867188	264.9400939941406	1011.044799804688	695.6705322265625	277.9076232910156	1032.98291015625	792.4970092773438	666.347900390625	1028.309448242188	730.8245849609375	665.8260498046875	1067.42578125	786.2620849609375	776.3321533203125	1022.644714355469	730.1360473632813	774.9212646484375	1064.600463867188	844.1932983398438	458.0518188476563	1071.476684570313	710.3126220703125	104.1988143920898	1418.486206054688	735.5802612304688	122.1847763061523	1332.378051757813	882.1630249023438	1067.739013671875	1353.011352539063	809.7117919921875	961.7937622070313	1414.8408203125	639.4210815429688	42.25361251831055	1371.145141601563	671.4053344726563	62.61750793457031	1416.55322265625	648.1027221679688	88.23117065429688	1370.659912109375	781.218994140625	485.4109497070313	1441.632568359375	812.1813354492188	1130.995483398438	1394.22314453125	799.3441162109375	538.1683349609375	1432.918579101563	803.2640380859375	525.9628295898438	1311.872680664063	863.9002075195313	60.46479034423828	1332.925048828125	870.6712036132813	71.13046264648438	1379.312377929688	834.9595947265625	50.48110198974609	1444.106323242188	712.3973388671875	1107.555908203125	1284.81396484375	725.9828491210938	179.1615142822266	1429.150390625	679.03271484375	186.2413024902344	1400.2919921875	725.6697387695313	258.5531311035156	1447.208251953125	680.0028686523438	264.5908508300781	1418.221801757813	803.6522827148438	647.4296875	1440.720458984375	738.6754760742188	647.9090576171875	1409.090087890625	803.1571044921875	757.9947509765625	1442.117919921875	740.8351440429688	757.8409423828125	1412.804321289063	842.0820922851563	458.4267578125	1392.227661132813	
59	0.3866666666666667	708.4413452148438	107.1574554443359	1038.173950195313	736.0982055664063	119.4320831298828	1122.17822265625	885.4155883789063	1063.007202148438	1114.1044921875	816.12841796875	965.7926635742188	1051.157592773438	640.1318359375	41.65380859375	1080.997314453125	675.9602661132813	63.15287780761719	1035.841552734375	649.63916015625	89.13999938964844	1082.288696289063	789.4046630859375	489.0669555664063	1025.765502929688	803.8718872070313	1138.806884765625	1070.958374023438	807.611083984375	545.4168090820313	1035.413940429688	793.9660034179688	528.6351318359375	1157.259643554688	864.9776000976563	57.81794738769531	1122.364624023438	868.93701171875	68.18862152099609	1077.893676757813	828.8268432617188	50.18364334106445	1012.259582519531	710.9606323242188	1107.45751953125	1184.24658203125	731.8030395507813	186.822021484375	1029.16259765625	686.780029296875	195.7122039794922	1051.689086914063	742.81640625	264.9408874511719	1011.047546386719	695.6453247070313	277.9119567871094	1032.991333007813	792.4498901367188	666.3591918945313	1028.3125	730.7769775390625	665.8346557617188	1067.439331054688	786.2005615234375	776.3405151367188	1022.650451660156	730.0872192382813	774.921142578125	1064.619506835938	844.1792602539063	458.076416015625	1071.477416992188	710.3082275390625	104.193603515625	1418.48388671875	735.5878295898438	122.1791763305664	1332.379516601563	882.1300659179688	1067.744873046875	1353.012329101563	809.6771850585938	961.79736328125	1414.8447265625	639.4200439453125	42.24771118164063	1371.144897460938	671.4002685546875	62.60862731933594	1416.554443359375	648.0984497070313	88.22718048095703	1370.66748046875	781.1939697265625	485.4064636230469	1441.62060546875	812.1336059570313	1131.009521484375	1394.22607421875	799.3282470703125	538.1691284179688	1432.904663085938	803.4772338867188	526.0067138671875	1311.856689453125	863.9000244140625	60.46258544921875	1332.921142578125	870.6633911132813	71.13328552246094	1379.320068359375	834.9646606445313	50.48938369750977	1444.109619140625	712.3624877929688	1107.55078125	1284.828002929688	725.9771118164063	179.1522979736328	1429.147583007813	679.018798828125	186.2401123046875	1400.286254882813	725.6533813476563	258.5567321777344	1447.208862304688	679.9900512695313	264.5867919921875	1418.2138671875	803.615966796875	647.42724609375	1440.707763671875	738.6371459960938	647.925537109375	1409.075805664063	803.1221923828125	757.9996337890625	1442.128662109375	740.80322265625	757.8534545898438	1412.8232421875	842.0718994140625	458.453125	1392.235717773438	
60	0.3933333333333334	708.453125	107.1647338867188	1038.18115234375	736.09814453125	119.4319381713867	1122.18115234375	885.4096069335938	1063.047485351563	1114.244384765625	816.0640869140625	965.7946166992188	1051.172607421875	640.1399536132813	41.64950942993164	1081.00732421875	675.9661865234375	63.15021514892578	1035.84228515625	649.6256103515625	89.13950347900391	1082.29052734375	789.3846435546875	489.0664672851563	1025.766479492188	803.8043823242188	1138.794677734375	1070.953125	807.5955810546875	545.4228515625	1035.413696289063	793.953125	528.6439819335938	1157.247436523438	864.978271484375	57.81804275512695	1122.363647460938	868.9420776367188	68.18282318115234	1077.890380859375	828.8142700195313	50.18451690673828	1012.253601074219	710.914794921875	1107.45751953125	1184.25439453125	731.79150390625	186.8200378417969	1029.152954101563	686.7719116210938	195.7114105224609	1051.69091796875	742.80517578125	264.9486083984375	1011.0458984375	695.6294555664063	277.9130859375	1032.995971679688	792.3610229492188	666.3784790039063	1028.319702148438	730.7332763671875	665.8417358398438	1067.4462890625	786.1405639648438	776.3511352539063	1022.656494140625	730.0390014648438	774.9279174804688	1064.635009765625	844.1546630859375	458.0769958496094	1071.462280273438	710.3072509765625	104.1999893188477	1418.497314453125	735.5771484375	122.1791152954102	1332.36865234375	882.0938110351563	1067.741455078125	1353.015747070313	809.64794921875	961.7998657226563	1414.850219726563	639.4262084960938	42.24552917480469	1371.149780273438	671.4014892578125	62.61027145385742	1416.547973632813	648.0936279296875	88.22871398925781	1370.66748046875	781.1770629882813	485.4094543457031	1441.624267578125	812.09423828125	1131.00439453125	1394.241333007813	799.3080444335938	538.16650390625	1432.906127929688	803.1867065429688	525.978271484375	1311.848266601563	863.8948364257813	60.46562576293945	1332.917602539063	870.670654296875	71.12925720214844	1379.316650390625	834.9703979492188	50.49197006225586	1444.109252929688	712.328857421875	1107.547485351563	1284.835571289063	725.9644775390625	179.1565551757813	1429.139892578125	679.01513671875	186.2303924560547	1400.272583007813	725.63720703125	258.546875	1447.206420898438	679.9791870117188	264.5824279785156	1418.210571289063	803.5838623046875	647.43115234375	1440.700073242188	738.6146850585938	647.9090576171875	1409.091064453125	803.0988159179688	757.9986572265625	1442.127685546875	740.7799072265625	757.8448486328125	1412.814575195313	842.049072265625	458.4389038085938	1392.222900390625	
